<svg xmlns="http://www.w3.org/2000/svg" version="1.1" xmlns:xlink="http://www.w3.org/1999/xlink" xmlns:svgjs="http://svgjs.com/svgjs" width="1440" height="560" preserveAspectRatio="none" viewBox="0 0 1440 560"><g mask="url(&quot;#SvgjsMask1007&quot;)" fill="none"><rect width="1440" height="560" x="0" y="0" fill="#0e2a47"></rect><path d="M467.23 585.54C664.27 543.82 750.09 33.2 1051.5 30.89 1352.92 28.58 1476.24 282.86 1635.78 288.49" stroke="rgba(27, 91, 160, 0.58)" stroke-width="2"></path><path d="M600.63 580.24C720.59 574.76 787.39 384.72 1032.55 370.02 1277.7 355.32 1339.1 121.95 1464.46 112.42" stroke="rgba(27, 91, 160, 0.58)" stroke-width="2"></path><path d="M276.2 631.42C399.27 625.59 494.1 413.81 718.15 413.3 942.21 412.79 939.13 483.3 1160.11 483.3 1381.08 483.3 1490.19 413.52 1602.06 413.3" stroke="rgba(27, 91, 160, 0.58)" stroke-width="2"></path><path d="M740.3 581.1C854.58 522.91 767.13 172.61 1013.73 147.09 1260.32 121.57 1420.44 24.65 1560.58 23.89" stroke="rgba(27, 91, 160, 0.58)" stroke-width="2"></path><path d="M668.43 645.59C770.06 617.34 705.98 352.04 952.77 333.86 1199.56 315.68 1371.54 145.97 1521.45 143.46" stroke="rgba(27, 91, 160, 0.58)" stroke-width="2"></path></g><defs><mask id="SvgjsMask1007"><rect width="1440" height="560" fill="#ffffff"></rect></mask></defs></svg>