<svg xmlns="http://www.w3.org/2000/svg" version="1.1" xmlns:xlink="http://www.w3.org/1999/xlink" xmlns:svgjs="http://svgjs.com/svgjs" width="1440" height="560" preserveAspectRatio="none" viewBox="0 0 1440 560"><g mask="url(&quot;#SvgjsMask1299&quot;)" fill="none"><rect width="1440" height="560" x="0" y="0" fill="url(#SvgjsLinearGradient1300)"></rect><path d="M895 524L1064 355" stroke-width="10" stroke="url(#SvgjsLinearGradient1301)" stroke-linecap="round" class="BottomLeft"></path><path d="M1074 554L1334 294" stroke-width="6" stroke="url(#SvgjsLinearGradient1302)" stroke-linecap="round" class="TopRight"></path><path d="M551 1L877 -325" stroke-width="10" stroke="url(#SvgjsLinearGradient1302)" stroke-linecap="round" class="TopRight"></path><path d="M870 107L1096 -119" stroke-width="6" stroke="url(#SvgjsLinearGradient1302)" stroke-linecap="round" class="TopRight"></path><path d="M336 122L16 442" stroke-width="10" stroke="url(#SvgjsLinearGradient1301)" stroke-linecap="round" class="BottomLeft"></path><path d="M92 210L-303 605" stroke-width="10" stroke="url(#SvgjsLinearGradient1302)" stroke-linecap="round" class="TopRight"></path><path d="M1040 74L760 354" stroke-width="10" stroke="url(#SvgjsLinearGradient1302)" stroke-linecap="round" class="TopRight"></path><path d="M292 113L466 -61" stroke-width="8" stroke="url(#SvgjsLinearGradient1302)" stroke-linecap="round" class="TopRight"></path><path d="M590 350L829 111" stroke-width="8" stroke="url(#SvgjsLinearGradient1302)" stroke-linecap="round" class="TopRight"></path><path d="M74 291L-235 600" stroke-width="6" stroke="url(#SvgjsLinearGradient1301)" stroke-linecap="round" class="BottomLeft"></path><path d="M1047 526L1378 195" stroke-width="6" stroke="url(#SvgjsLinearGradient1302)" stroke-linecap="round" class="TopRight"></path><path d="M772 74L1045 -199" stroke-width="8" stroke="url(#SvgjsLinearGradient1301)" stroke-linecap="round" class="BottomLeft"></path><path d="M377 181L691 -133" stroke-width="6" stroke="url(#SvgjsLinearGradient1302)" stroke-linecap="round" class="TopRight"></path><path d="M1320 167L915 572" stroke-width="8" stroke="url(#SvgjsLinearGradient1302)" stroke-linecap="round" class="TopRight"></path><path d="M865 509L647 727" stroke-width="8" stroke="url(#SvgjsLinearGradient1301)" stroke-linecap="round" class="BottomLeft"></path><path d="M532 97L324 305" stroke-width="8" stroke="url(#SvgjsLinearGradient1301)" stroke-linecap="round" class="BottomLeft"></path><path d="M451 472L60 863" stroke-width="8" stroke="url(#SvgjsLinearGradient1301)" stroke-linecap="round" class="BottomLeft"></path><path d="M874 408L665 617" stroke-width="6" stroke="url(#SvgjsLinearGradient1302)" stroke-linecap="round" class="TopRight"></path><path d="M905 365L741 529" stroke-width="10" stroke="url(#SvgjsLinearGradient1302)" stroke-linecap="round" class="TopRight"></path><path d="M56 471L210 317" stroke-width="6" stroke="url(#SvgjsLinearGradient1301)" stroke-linecap="round" class="BottomLeft"></path><path d="M350 411L678 83" stroke-width="6" stroke="url(#SvgjsLinearGradient1302)" stroke-linecap="round" class="TopRight"></path><path d="M671 284L1051 -96" stroke-width="10" stroke="url(#SvgjsLinearGradient1301)" stroke-linecap="round" class="BottomLeft"></path><path d="M1377 241L1124 494" stroke-width="8" stroke="url(#SvgjsLinearGradient1301)" stroke-linecap="round" class="BottomLeft"></path><path d="M1105 326L808 623" stroke-width="10" stroke="url(#SvgjsLinearGradient1301)" stroke-linecap="round" class="BottomLeft"></path><path d="M950 472L1228 194" stroke-width="6" stroke="url(#SvgjsLinearGradient1302)" stroke-linecap="round" class="TopRight"></path><path d="M888 95L642 341" stroke-width="10" stroke="url(#SvgjsLinearGradient1302)" stroke-linecap="round" class="TopRight"></path><path d="M509 210L228 491" stroke-width="6" stroke="url(#SvgjsLinearGradient1302)" stroke-linecap="round" class="TopRight"></path><path d="M1223 427L1447 203" stroke-width="8" stroke="url(#SvgjsLinearGradient1302)" stroke-linecap="round" class="TopRight"></path><path d="M915 533L652 796" stroke-width="10" stroke="url(#SvgjsLinearGradient1302)" stroke-linecap="round" class="TopRight"></path><path d="M1310 348L1702 -44" stroke-width="8" stroke="url(#SvgjsLinearGradient1301)" stroke-linecap="round" class="BottomLeft"></path><path d="M127 465L440 152" stroke-width="8" stroke="url(#SvgjsLinearGradient1301)" stroke-linecap="round" class="BottomLeft"></path><path d="M1155 163L778 540" stroke-width="6" stroke="url(#SvgjsLinearGradient1302)" stroke-linecap="round" class="TopRight"></path><path d="M270 547L626 191" stroke-width="10" stroke="url(#SvgjsLinearGradient1302)" stroke-linecap="round" class="TopRight"></path><path d="M607 118L238 487" stroke-width="10" stroke="url(#SvgjsLinearGradient1301)" stroke-linecap="round" class="BottomLeft"></path><path d="M93 469L425 137" stroke-width="6" stroke="url(#SvgjsLinearGradient1302)" stroke-linecap="round" class="TopRight"></path><path d="M277 93L463 -93" stroke-width="8" stroke="url(#SvgjsLinearGradient1302)" stroke-linecap="round" class="TopRight"></path><path d="M894 314L667 541" stroke-width="8" stroke="url(#SvgjsLinearGradient1302)" stroke-linecap="round" class="TopRight"></path><path d="M106 526L514 118" stroke-width="6" stroke="url(#SvgjsLinearGradient1302)" stroke-linecap="round" class="TopRight"></path><path d="M1225 347L1559 13" stroke-width="8" stroke="url(#SvgjsLinearGradient1302)" stroke-linecap="round" class="TopRight"></path></g><defs><mask id="SvgjsMask1299"><rect width="1440" height="560" fill="#ffffff"></rect></mask><linearGradient x1="15.28%" y1="139.29%" x2="84.72%" y2="-39.29%" gradientUnits="userSpaceOnUse" id="SvgjsLinearGradient1300"><stop stop-color="#0e2a47" offset="0"></stop><stop stop-color="rgba(53, 64, 78, 1)" offset="1"></stop></linearGradient><linearGradient x1="100%" y1="0%" x2="0%" y2="100%" id="SvgjsLinearGradient1301"><stop stop-color="rgba(28, 83, 142, 0)" offset="0"></stop><stop stop-color="#1c538e" offset="1"></stop></linearGradient><linearGradient x1="0%" y1="100%" x2="100%" y2="0%" id="SvgjsLinearGradient1302"><stop stop-color="rgba(28, 83, 142, 0)" offset="0"></stop><stop stop-color="#1c538e" offset="1"></stop></linearGradient></defs></svg>