<svg xmlns="http://www.w3.org/2000/svg" version="1.1" xmlns:xlink="http://www.w3.org/1999/xlink" xmlns:svgjs="http://svgjs.com/svgjs" width="1440" height="250" preserveAspectRatio="none" viewBox="0 0 1440 250"><g mask="url(&quot;#SvgjsMask1000&quot;)" fill="none"><rect width="1440" height="250" x="0" y="0" fill="#0e2a47"></rect><path d="M30 250L280 0L341.5 0L91.5 250z" fill="url(#SvgjsLinearGradient1001)"></path><path d="M271.6 250L521.6 0L569.6 0L319.6 250z" fill="url(#SvgjsLinearGradient1001)"></path><path d="M483.20000000000005 250L733.2 0L1087.2 0L837.2 250z" fill="url(#SvgjsLinearGradient1001)"></path><path d="M719.8000000000001 250L969.8000000000001 0L1319.3000000000002 0L1069.3000000000002 250z" fill="url(#SvgjsLinearGradient1001)"></path><path d="M1431 250L1181 0L972.5 0L1222.5 250z" fill="url(#SvgjsLinearGradient1002)"></path><path d="M1200.4 250L950.4000000000001 0L777.9000000000001 0L1027.9 250z" fill="url(#SvgjsLinearGradient1002)"></path><path d="M958.8 250L708.8 0L558.8 0L808.8 250z" fill="url(#SvgjsLinearGradient1002)"></path><path d="M693.1999999999999 250L443.19999999999993 0L239.19999999999993 0L489.19999999999993 250z" fill="url(#SvgjsLinearGradient1002)"></path><path d="M1209.0730853482953 250L1440 19.073085348295365L1440 250z" fill="url(#SvgjsLinearGradient1001)"></path><path d="M0 250L230.92691465170464 250L 0 19.073085348295365z" fill="url(#SvgjsLinearGradient1002)"></path></g><defs><mask id="SvgjsMask1000"><rect width="1440" height="250" fill="#ffffff"></rect></mask><linearGradient x1="0%" y1="100%" x2="100%" y2="0%" id="SvgjsLinearGradient1001"><stop stop-color="rgba(19, 86, 227, 0.44)" offset="0"></stop><stop stop-opacity="0" stop-color="rgba(19, 86, 227, 0.44)" offset="0.66"></stop></linearGradient><linearGradient x1="100%" y1="100%" x2="0%" y2="0%" id="SvgjsLinearGradient1002"><stop stop-color="rgba(19, 86, 227, 0.44)" offset="0"></stop><stop stop-opacity="0" stop-color="rgba(19, 86, 227, 0.44)" offset="0.66"></stop></linearGradient></defs></svg>